<svg width="1000" height="1000" viewBox="0 0 1000 1000" fill="none" xmlns="http://www.w3.org/2000/svg">
<mask id="mask0_1_71" style="mask-type:alpha" maskUnits="userSpaceOnUse" x="242" y="126" width="516" height="749">
<path d="M254 126H269H570H662.5C684 126 712 136.5 733 161C749.8 180.6 756 208.833 757 220.5L758 529L757 574.5C754.667 585.833 747.6 611.4 738 623C711.6 657.4 673.333 665.333 657.5 665H513C497.4 665 495.167 651 496 644L547 170.5L548 156C547.833 154 545.5 150 537.5 150C529.5 150 525.5 155.667 524.5 158.5L453 809.5L450 836C445.2 862.8 423.5 874.5 413 874H255C246.6 874 242 866 242 862V147.5V137.5C242 127.5 252 126 254 126Z" fill="#D9D9D9"/>
</mask>
<g mask="url(#mask0_1_71)">
<rect x="-97.5" y="200.189" width="988" height="250.624" transform="rotate(-17.2625 -97.5 200.189)" fill="#EFCF4A"/>
<path d="M-22.5 338.094C-22.5 338.094 755 242.905 941.5 77.9046L995.369 284.239L51.8728 577.428L-22.5 338.094Z" fill="#D95525"/>
<path d="M41.6109 464.051C232.418 650.246 870.191 79.2255 1026.44 384.939C1182.69 690.653 1046.51 634.759 1046.51 634.759L61.6789 713.87C61.6789 713.87 -149.197 277.855 41.6109 464.051Z" fill="#CC3B2C"/>
<path d="M34.8661 783.544C-13.9319 627.242 644.008 587.79 917.494 339.57C1190.98 91.3503 1030.12 563.465 1030.12 563.465L147.488 1007.44C147.488 1007.44 83.6641 939.845 34.8661 783.544Z" fill="#9D2C44"/>
<path d="M40.528 848.123C48.2455 794.125 539.999 692.914 539.999 692.914L616.584 939.367L117.113 1094.58C117.113 1094.58 32.8106 902.122 40.528 848.123Z" fill="#6F364F"/>
</g>
</svg>
